<svg xmlns="http://www.w3.org/2000/svg" viewBox="0 0 900 625" role="img"
     aria-label="La croix du frigoriste : détendeur à gauche, compresseur à droite, condenseur en haut, évaporateur en bas.">
  <title>La croix du frigoriste</title>
  <desc>Circuit frigorifique de principe. Détendeur à gauche, compresseur à droite,
        condenseur à air en haut, évaporateur en bas. Haute pression en orange,
        basse pression en bleu. Symboles issus de la bibliothèque inerWeb.</desc>

  <style>
    .trait  { fill:none; stroke:#33475b; stroke-width:2.2; }
    .fine   { fill:none; stroke:#33475b; stroke-width:1; stroke-dasharray:3 5; }
    .pt     { fill:#33475b; }
    .hp     { fill:none; stroke:#ff6b35; stroke-width:6; stroke-linecap:round; stroke-linejoin:round; }
    .bp     { fill:none; stroke:#1b3a63; stroke-width:6; stroke-linecap:round; stroke-linejoin:round; }
    .organe { font:700 21px Calibri,Segoe UI,sans-serif; fill:#1b3a63; }
    .role   { font:400 15px Calibri,Segoe UI,sans-serif; fill:#4a5b6e; }
    .etiqhp { font:700 14px Calibri,Segoe UI,sans-serif; fill:#c9451a; }
    .etiqbp { font:700 14px Calibri,Segoe UI,sans-serif; fill:#1b3a63; }
    .pos    { font:700 12px Calibri,Segoe UI,sans-serif; fill:#8494a4; letter-spacing:2px; }
  </style>

  <defs>
    <marker id="fh" viewBox="0 0 10 10" refX="8" refY="5" markerWidth="4.5" markerHeight="4.5" orient="auto-start-reverse">
      <path d="M0,0 L10,5 L0,10 z" fill="#ff6b35"/>
    </marker>
    <marker id="fb" viewBox="0 0 10 10" refX="8" refY="5" markerWidth="4.5" markerHeight="4.5" orient="auto-start-reverse">
      <path d="M0,0 L10,5 L0,10 z" fill="#1b3a63"/>
    </marker>
  </defs>

  <rect width="900" height="625" fill="#ffffff"/>

  <!-- ======================= TUYAUTERIES =======================
       Circulation : compresseur (droite) → condenseur (haut)
       → détendeur (gauche) → évaporateur (bas) → compresseur.   -->

  <!-- refoulement : compresseur → condenseur — HP vapeur chaude -->
  <path class="hp" d="M 670 275 L 670 120 L 566 120" marker-end="url(#fh)"/>
  <!-- ligne liquide : condenseur → détendeur — HP liquide -->
  <path class="hp" d="M 340 120 L 230 120 L 230 278" marker-end="url(#fh)"/>
  <!-- sortie détendeur → évaporateur — BP, mélange liquide + vapeur -->
  <path class="bp" d="M 230 336 L 230 500 L 334 500" marker-end="url(#fb)"/>
  <!-- aspiration : évaporateur → compresseur — BP vapeur surchauffée -->
  <path class="bp" d="M 560 500 L 670 500 L 670 351" marker-end="url(#fb)"/>

  <!-- ======================= CONDENSEUR (HAUT) ======================= -->
  <g transform="translate(450,120)">
    <rect x="-110" y="-38" width="220" height="76" rx="4" fill="#fff" stroke="#33475b" stroke-width="2.2"/>
    <path class="fine" d="M -72 -38 L -72 38 M -36 -38 L -36 38 M 0 -38 L 0 38 M 36 -38 L 36 38 M 72 -38 L 72 38"/>
    <!-- serpentin : le fluide traverse la batterie de part en part -->
    <path class="trait" d="M -110 -22 L 88 -22 A 11 11 0 0 1 88 0 L -88 0 A 11 11 0 0 0 -88 22 L 110 22"/>
    <circle class="pt" cx="-110" cy="0" r="3.5"/>
    <circle class="pt" cx="110" cy="0" r="3.5"/>
  </g>
  <!-- ventilateur axial — symbole normalisé (bibliothèque inerWeb) -->
  <g transform="translate(450,46) scale(1.5)" stroke="#33475b" stroke-width="1.5" fill="none">
    <circle cx="0" cy="0" r="15" fill="#fff"/>
    <path d="M -6 -7 A 6 6 0 0 1 0 -1"/>
    <path d="M -1 0 A 6 6 0 0 1 -7 -6"/>
    <path d="M -7 6 A 6 6 0 0 1 -1 0"/>
    <path d="M 0 1 A 6 6 0 0 1 -6 7"/>
    <ellipse cx="4.5" cy="0" rx="4.5" ry="2.5"/>
    <path d="M -7 -13 L 13 -7 M -7 13 L 13 7"/>
  </g>
  <path class="fine" d="M 450 69 L 450 82"/>
  <text class="pos"    x="450" y="184" text-anchor="middle">HAUT</text>
  <text class="organe" x="450" y="208" text-anchor="middle">CONDENSEUR (à air)</text>
  <text class="role"   x="450" y="230" text-anchor="middle">évacue la chaleur · la vapeur redevient liquide</text>

  <!-- ======================= COMPRESSEUR (DROITE) =======================
       symbole normalisé, pivoté : aspiration en bas, refoulement en haut -->
  <g transform="translate(670,310) rotate(-90) scale(2.2)" stroke="#33475b" stroke-width="1.1" fill="none">
    <circle cx="0" cy="0" r="15" fill="#fff"/>
    <path d="M -15 0 L -16 0 M 15 0 L 16 0"/>
    <path d="M -7 -13 L 13 -7 M -7 13 L 13 7"/>
    <circle class="pt" cx="-16" cy="0" r="1.5" stroke="none"/>
    <circle class="pt" cx="16" cy="0" r="1.5" stroke="none"/>
  </g>
  <text class="pos"    x="722" y="286">DROITE</text>
  <text class="organe" x="722" y="312">COMPRESSEUR</text>
  <text class="role"   x="722" y="334">aspire en BP,</text>
  <text class="role"   x="722" y="353">refoule en HP</text>

  <!-- ======================= DÉTENDEUR (GAUCHE) =======================
       thermostatique à égalisation externe, pivoté :
       entrée en haut, sortie en bas, bulbe côté extérieur -->
  <g transform="translate(230,310) rotate(-90) scale(2.4)" stroke="#33475b" stroke-width="1.1" fill="none">
    <circle cx="0" cy="-12" r="5.83" fill="#fff"/>
    <path d="M 0 -18 L 0 -20"/>
    <polygon points="2,1 0,3 -2,1 -10,5 -10,-5 10,5 10,-5 -2,1 0,0" fill="#fff"/>
    <path d="M 0 0 L 0 -6 M 10 0 L 11 0 M -10 0 L -11 0"/>
    <circle class="pt" cx="0" cy="-20" r="1.5" stroke="none"/>
    <circle class="pt" cx="11" cy="0" r="1.5" stroke="none"/>
    <circle class="pt" cx="-11" cy="0" r="1.5" stroke="none"/>
  </g>
  <text class="pos"    x="166" y="286" text-anchor="end">GAUCHE</text>
  <text class="organe" x="166" y="312" text-anchor="end">DÉTENDEUR</text>
  <text class="role"   x="166" y="334" text-anchor="end">fait chuter la pression,</text>
  <text class="role"   x="166" y="353" text-anchor="end">dose le débit de liquide</text>

  <!-- ======================= ÉVAPORATEUR (BAS) ======================= -->
  <g transform="translate(450,500)">
    <rect x="-110" y="-38" width="220" height="76" rx="4" fill="#fff" stroke="#33475b" stroke-width="2.2"/>
    <path class="fine" d="M -72 -38 L -72 38 M -36 -38 L -36 38 M 0 -38 L 0 38 M 36 -38 L 36 38 M 72 -38 L 72 38"/>
    <path class="trait" d="M -110 -22 L 88 -22 A 11 11 0 0 1 88 0 L -88 0 A 11 11 0 0 0 -88 22 L 110 22"/>
    <circle class="pt" cx="-110" cy="0" r="3.5"/>
    <circle class="pt" cx="110" cy="0" r="3.5"/>
  </g>
  <text class="pos"    x="450" y="564" text-anchor="middle">BAS</text>
  <text class="organe" x="450" y="588" text-anchor="middle">ÉVAPORATEUR</text>
  <text class="role"   x="450" y="610" text-anchor="middle">absorbe la chaleur du milieu à refroidir · le liquide s'évapore</text>

  <!-- ======================= ÉTIQUETTES DE LIGNE ======================= -->
  <text class="etiqhp" x="248" y="178">HP · liquide</text>
  <text class="etiqhp" x="652" y="178" text-anchor="end">HP · vapeur chaude</text>
  <text class="etiqbp" x="248" y="432">BP · liquide + vapeur</text>
  <text class="etiqbp" x="652" y="432" text-anchor="end">BP · vapeur surchauffée</text>

  <!-- ======================= REPÈRE HP / BP ======================= -->
  <g transform="translate(450,310)">
    <rect x="-128" y="-48" width="256" height="96" rx="8" fill="#f5f8fb" stroke="#d7e0e8" stroke-width="1.5"/>
    <text class="organe" x="0" y="-20" text-anchor="middle" style="font-size:17px">Deux moitiés, deux pressions</text>
    <line x1="-110" y1="-4" x2="-84" y2="-4" stroke="#ff6b35" stroke-width="6" stroke-linecap="round"/>
    <text class="role" x="-76" y="1">HAUTE pression — on rejette la chaleur</text>
    <line x1="-110" y1="26" x2="-84" y2="26" stroke="#1b3a63" stroke-width="6" stroke-linecap="round"/>
    <text class="role" x="-76" y="31">BASSE pression — on produit le froid</text>
  </g>
</svg>
