<svg xmlns="http://www.w3.org/2000/svg" viewBox="0 0 900 470" role="img"
     aria-label="Les quatre types de détendeurs avec leur symbole normalisé, et la ligne liquide avec ses accessoires dans l'ordre.">
  <title>Détendeurs et ligne liquide</title>

  <style>
    .t   { font:700 19px Calibri,Segoe UI,sans-serif; fill:#1b3a63; }
    .l   { font:700 14.5px Calibri,Segoe UI,sans-serif; fill:#1b3a63; }
    .s   { font:400 13px Calibri,Segoe UI,sans-serif; fill:#4a5b6e; }
    .sym { stroke:#33475b; stroke-width:1.1; fill:none; }
    .pipe{ stroke:#ff6b35; stroke-width:4.5; fill:none; stroke-linecap:round; }
    .flux{ fill:none; stroke:#fff; stroke-opacity:.9; stroke-width:2.2; stroke-linecap:round;
           stroke-dasharray:0.1 15; animation:flux 1.1s linear infinite; }
    @keyframes flux { to { stroke-dashoffset:-15.1; } }
    @media (prefers-reduced-motion:reduce) { .flux { animation:none; } }
  </style>

  <rect width="900" height="470" fill="#ffffff"/>

  <!-- ==================== HAUT : les 4 détendeurs ==================== -->
  <text class="t" x="40" y="36">Quatre façons de détendre</text>

  <!-- thermostatique à égalisation interne -->
  <g transform="translate(115,120) scale(2.6)" class="sym">
    <circle cx="0" cy="-12" r="5.83"/>
    <polygon points="2,1 0,3 -2,1 -10,5 -10,-5 10,5 10,-5 -2,1 0,0" fill="#fff"/>
    <path d="M 0 0 L 0 -6 M 10 0 L 11 0 M -10 0 L -11 0"/>
  </g>
  <text class="l" x="115" y="170" text-anchor="middle">Thermostatique interne</text>
  <text class="s" x="115" y="190" text-anchor="middle">le bulbe sent la sortie</text>
  <text class="s" x="115" y="207" text-anchor="middle">d'évaporateur</text>

  <!-- thermostatique à égalisation externe -->
  <g transform="translate(340,120) scale(2.6)" class="sym">
    <circle cx="0" cy="-12" r="5.83" fill="#fff"/>
    <path d="M 0 -18 L 0 -20"/>
    <polygon points="2,1 0,3 -2,1 -10,5 -10,-5 10,5 10,-5 -2,1 0,0" fill="#fff"/>
    <path d="M 0 0 L 0 -6 M 10 0 L 11 0 M -10 0 L -11 0"/>
    <!-- prise d'égalisation externe -->
    <path d="M 0 -20 L 18 -20 L 18 -8" stroke-dasharray="2 2"/>
  </g>
  <text class="l" x="340" y="170" text-anchor="middle">Thermostatique externe</text>
  <text class="s" x="340" y="190" text-anchor="middle">+ prise de pression après</text>
  <text class="s" x="340" y="207" text-anchor="middle">l'évaporateur (grosses batteries)</text>

  <!-- électronique -->
  <g transform="translate(565,120) scale(2.6)" class="sym">
    <circle cx="0" cy="-12" r="5.83" fill="#fff"/>
    <polygon points="2,1 0,3 -2,1 -10,5 -10,-5 10,5 10,-5 -2,1 0,0" fill="#fff"/>
    <path d="M 0 0 L 0 -6 M 10 0 L 11 0 M -10 0 L -11 0"/>
    <!-- éclair de commande -->
    <path d="M -2 -14 L 2 -14 L -1 -10 L 3 -10 L -2 -4" stroke-width="1" fill="none"/>
  </g>
  <text class="l" x="565" y="170" text-anchor="middle">Électronique</text>
  <text class="s" x="565" y="190" text-anchor="middle">sonde + régulateur :</text>
  <text class="s" x="565" y="207" text-anchor="middle">plus précis, plus rapide</text>

  <!-- capillaire -->
  <g transform="translate(790,112) scale(2.6)" class="sym">
    <path d="M -21.25 -1 L -15.73 -1"/>
    <path d="M -14 -2.3 A 3 2.9 0 0 1 -8 -2.3 M -11 -2.3 A 4 2.9 0 0 1 -3 -2.3 M -6 -2.3 A 4 2.9 0 0 1 2 -2.3 M -1 -2.3 A 4 2.9 0 0 1 7 -2.3 M 4 -2.3 A 3 2.9 0 0 1 10 -2.3"/>
    <path d="M -8 -1.4 A 1.5 3.6 0 0 1 -11 -1.4 M -3 -1.4 A 1.5 3.6 0 0 1 -6 -1.4 M 2 -1.4 A 1.5 3.6 0 0 1 -1 -1.4 M 7 -1.4 A 1.5 3.6 0 0 1 4 -1.4"/>
    <path d="M 11.75 -1 L 17.27 -1"/>
  </g>
  <text class="l" x="790" y="170" text-anchor="middle">Tube capillaire</text>
  <text class="s" x="790" y="190" text-anchor="middle">fixe, sans réglage :</text>
  <text class="s" x="790" y="207" text-anchor="middle">frigos et petits appareils</text>

  <path d="M 40 240 L 860 240" stroke="#d7e0e8" stroke-width="1.5"/>

  <!-- ==================== BAS : la ligne liquide ==================== -->
  <text class="t" x="40" y="278">La ligne liquide, dans l'ordre</text>

  <!-- tuyauterie HP liquide, de la bouteille au détendeur -->
  <path class="pipe" d="M 95 350 L 810 350"/>
  <path class="flux" d="M 95 350 L 810 350"/>

  <!-- réserve de liquide -->
  <g transform="translate(105,350) scale(2.4)" class="sym">
    <path d="M -17 7 L 17 7 M -17 -7 L 17 -7"/>
    <path d="M 17.5 -7 A 2.5 7 0 0 1 17.5 7 M -17.5 7 A 2.5 7 0 0 1 -17.5 -7" fill="#fff"/>
  </g>
  <text class="l" x="105" y="405" text-anchor="middle">Réserve de liquide</text>
  <text class="s" x="105" y="424" text-anchor="middle">du condenseur</text>

  <!-- filtre déshydrateur -->
  <g transform="translate(300,350) scale(2.4)" class="sym">
    <rect x="-11" y="-5" width="22" height="10" fill="#fff"/>
    <path d="M -7.5 -4.5 L -7.5 4.5 M -0.5 -4.5 L -0.5 4.5 M 6.5 -4.5 L 6.5 4.5"/>
  </g>
  <text class="l" x="300" y="405" text-anchor="middle">Filtre déshydrateur</text>
  <text class="s" x="300" y="424" text-anchor="middle">monté dans le sens de la flèche</text>

  <!-- voyant -->
  <g transform="translate(470,350) scale(2.4)" class="sym">
    <rect x="-11" y="-6" width="22" height="12" fill="#fff"/>
    <ellipse cx="0" cy="0" rx="5.8" ry="5.6"/>
  </g>
  <text class="l" x="470" y="405" text-anchor="middle">Voyant</text>
  <text class="s" x="470" y="424" text-anchor="middle">bulles ? pastille d'humidité ?</text>

  <!-- électrovanne -->
  <g transform="translate(630,352) scale(2.4)" class="sym">
    <path d="M -3 -13 L 3 -9 M -3 -8 L -3 -15 M 3 -8 L 3 -15"/>
    <path d="M -3 -15 A 3 3 0 0 1 3 -15 M 3 -7 A 3 3 0 0 1 -3 -7"/>
    <polygon points="2,1 0,3 -2,1 -10,5 -10,-5 10,5 10,-5 -2,1 0,0" fill="#fff"/>
    <path d="M 0 0 L 0 -4"/>
  </g>
  <text class="l" x="630" y="405" text-anchor="middle">Électrovanne</text>
  <text class="s" x="630" y="424" text-anchor="middle">coupe la ligne à l'arrêt</text>

  <!-- détendeur -->
  <g transform="translate(790,352) scale(2.4)" class="sym">
    <circle cx="0" cy="-12" r="5.83" fill="#fff"/>
    <polygon points="2,1 0,3 -2,1 -10,5 -10,-5 10,5 10,-5 -2,1 0,0" fill="#fff"/>
    <path d="M 0 0 L 0 -6"/>
  </g>
  <text class="l" x="790" y="405" text-anchor="middle">Détendeur</text>
  <text class="s" x="790" y="424" text-anchor="middle">vers l'évaporateur</text>

  <text class="s" x="450" y="456" text-anchor="middle">Chaque accessoire est aussi un point de fuite potentiel : raccords vissés, presse-étoupes — à recontrôler.</text>
</svg>
