<svg xmlns="http://www.w3.org/2000/svg" width="94" height="214" viewBox="-7.00 -9.00 94.00 214.00">
  <rect x="0" y="0" width="80" height="200" fill="#fff" stroke="#000" stroke-width="0.5"/>
  <rect x="7" y="83" width="25" height="9" fill="#0a0" stroke="#000" stroke-width="1"/>
  <rect x="0" y="50" width="80" height="100" fill="none" stroke="#000" stroke-width="0.5"/>
  <line x1="66" y1="102" x2="67" y2="103" stroke="#000" stroke-width="1"/>
  <line x1="75" y1="111" x2="76" y2="112" stroke="#000" stroke-width="1"/>
  <line x1="66" y1="112" x2="67" y2="111" stroke="#000" stroke-width="1"/>
  <line x1="71" y1="113" x2="71" y2="114" stroke="#000" stroke-width="1"/>
  <line x1="75" y1="103" x2="76" y2="102" stroke="#000" stroke-width="1"/>
  <ellipse cx="30.00" cy="19.00" rx="5.00" ry="5.00" fill="none" stroke="#000" stroke-width="1"/>
  <line x1="28" y1="17" x2="32" y2="21" stroke="#000" stroke-width="1"/>
  <line x1="32" y1="17" x2="28" y2="21" stroke="#000" stroke-width="1"/>
  <line x1="30" y1="17" x2="30" y2="21" stroke="#000" stroke-width="0.5"/>
  <ellipse cx="10.00" cy="19.00" rx="5.00" ry="5.00" fill="none" stroke="#000" stroke-width="1"/>
  <line x1="28" y1="19" x2="32" y2="19" stroke="#000" stroke-width="0.5"/>
  <line x1="8" y1="17" x2="12" y2="21" stroke="#000" stroke-width="1"/>
  <line x1="12" y1="17" x2="8" y2="21" stroke="#000" stroke-width="1"/>
  <line x1="10" y1="17" x2="10" y2="21" stroke="#000" stroke-width="0.5"/>
  <line x1="8" y1="19" x2="12" y2="19" stroke="#000" stroke-width="0.5"/>
  <rect x="7" y="91" width="25" height="18" fill="#888" stroke="#000" stroke-width="1"/>
  <line x1="0" y1="175" x2="80" y2="175" stroke="#000" stroke-width="0.5"/>
  <rect x="5" y="110" width="30" height="6" fill="#888" stroke="#000" stroke-width="1"/>
  <line x1="7" y1="114" x2="32" y2="114" stroke="#000" stroke-width="1"/>
  <line x1="7" y1="112" x2="32" y2="112" stroke="#000" stroke-width="1"/>
  <line x1="40" y1="0" x2="40" y2="26" stroke="#000" stroke-width="0.5"/>
  <rect x="55" y="140" width="25" height="10" fill="#888" stroke="#000" stroke-width="0.5"/>
  <polyline points="5,120 5,145 10,145" fill="none" stroke="#c00" stroke-width="1"/>
  <polyline points="30,145 50,145" fill="none" stroke="#c00" stroke-width="1"/>
  <rect x="0" y="50" width="80" height="30" fill="#0cc" stroke="#000" stroke-width="0.5"/>
  <line x1="69" y1="100" x2="77" y2="104" stroke="#000" stroke-width="1"/>
  <line x1="73" y1="100" x2="65" y2="104" stroke="#000" stroke-width="1"/>
  <line x1="67" y1="102" x2="67" y2="112" stroke="#000" stroke-width="1"/>
  <line x1="65" y1="110" x2="73" y2="114" stroke="#000" stroke-width="1"/>
  <line x1="69" y1="114" x2="77" y2="110" stroke="#000" stroke-width="1"/>
  <line x1="75" y1="102" x2="75" y2="112" stroke="#000" stroke-width="1"/>
  <line x1="71" y1="100" x2="71" y2="101" stroke="#000" stroke-width="1"/>
  <path d="M 72.00 96.00 A 1.00 1.00 0 0 0 74.00 96.00" fill="none" stroke="#000" stroke-width="0.5"/>
  <path d="M 72.00 96.00 A 1.00 1.00 0 0 0 70.00 96.00" fill="none" stroke="#000" stroke-width="0.5"/>
  <rect x="69" y="94" width="6" height="4" fill="none" stroke="#000" stroke-width="0.5"/>
  <rect x="70" y="123" width="2" height="12" fill="#000" stroke="#000" stroke-width="0.5"/>
  <ellipse cx="71.00" cy="133.00" rx="0.50" ry="0.50" fill="#fff" stroke="#000" stroke-width="0.5"/>
  <rect x="24" y="136" width="13.31" height="4" fill="none" stroke="#000" stroke-width="0.5"/>
  <rect x="10" y="136" width="10" height="4" fill="none" stroke="#000" stroke-width="0.5"/>
  <line x1="8" y1="138" x2="22" y2="138" stroke="#000" stroke-width="0.5"/>
  <polygon points="65,142 71,142 71,144 69,144 69,148 67,148 67,144 65,144" fill="none" stroke="#000" stroke-width="0.5"/>
  <ellipse cx="36.52" cy="36.54" rx="6.00" ry="4.00" fill="none" stroke="#000" stroke-width="0.5"/>
  <line x1="64" y1="40" x2="68" y2="40" stroke="#000" stroke-width="0.5"/>
  <line x1="59" y1="33.5" x2="59" y2="31" stroke="#000" stroke-width="0.5"/>
  <line x1="55" y1="31" x2="55" y2="33.5" stroke="#000" stroke-width="0.5"/>
  <line x1="58.55" y1="33.5" x2="59.45" y2="33.5" stroke="#000" stroke-width="0.5"/>
  <line x1="54.5" y1="33.5" x2="55.5" y2="33.5" stroke="#000" stroke-width="0.5"/>
  <ellipse cx="59.00" cy="39.00" rx="0.50" ry="0.50" fill="#000" stroke="#000" stroke-width="0.5"/>
  <rect x="54" y="40" width="6" height="4" rx="1" ry="1" fill="none" stroke="#000" stroke-width="0.5"/>
  <polyline points="54,35 66,35 66,42 60,42" fill="none" stroke="#000" stroke-width="0.5" stroke-dasharray="4,2"/>
  <rect x="65" y="39" width="2" height="2" fill="#fff" stroke="#000" stroke-width="0.5"/>
  <polyline points="69,35 68,35 68,37 69,37" fill="none" stroke="#000" stroke-width="0.5"/>
  <line x1="68" y1="36" x2="70" y2="36" stroke="#000" stroke-width="0.5" stroke-dasharray="4,2"/>
  <polyline points="63,33 63,32 71,32 71,34 69,38" fill="none" stroke="#000" stroke-width="0.5"/>
  <polyline points="61,33 63,37 63,39 59,39" fill="none" stroke="#000" stroke-width="0.5"/>
  <polyline points="53,33 55,37 55,46 71,46 71,38" fill="none" stroke="#000" stroke-width="0.5"/>
  <polyline points="57,33 59,37 59,45 77,45 77,32" fill="none" stroke="#000" stroke-width="0.5"/>
  <ellipse cx="71.00" cy="46.00" rx="0.50" ry="0.50" fill="#000" stroke="#000" stroke-width="0.5"/>
  <rect x="70" y="40" width="2" height="3" fill="#fff" stroke="#000" stroke-width="0.5"/>
  <polyline points="71,46 74,46 74,32" fill="none" stroke="#000" stroke-width="0.5"/>
  <line x1="0" y1="26" x2="80" y2="26" stroke="#000" stroke-width="0.5"/>
  <ellipse cx="70.00" cy="19.00" rx="5.00" ry="5.00" fill="none" stroke="#000" stroke-width="1"/>
  <line x1="68" y1="17" x2="72" y2="21" stroke="#000" stroke-width="1"/>
  <line x1="72" y1="17" x2="68" y2="21" stroke="#000" stroke-width="1"/>
  <line x1="70" y1="17" x2="70" y2="21" stroke="#000" stroke-width="0.5"/>
  <ellipse cx="50.00" cy="19.00" rx="5.00" ry="5.00" fill="none" stroke="#000" stroke-width="1"/>
  <line x1="68" y1="19" x2="72" y2="19" stroke="#000" stroke-width="0.5"/>
  <line x1="48" y1="17" x2="52" y2="21" stroke="#000" stroke-width="1"/>
  <line x1="52" y1="17" x2="48" y2="21" stroke="#000" stroke-width="1"/>
  <line x1="50" y1="17" x2="50" y2="21" stroke="#000" stroke-width="0.5"/>
  <line x1="48" y1="19" x2="52" y2="19" stroke="#000" stroke-width="0.5"/>
  <circle cx="70" cy="0" r="1.5" fill="#000"/>
  <circle cx="30" cy="0" r="1.5" fill="#000"/>
  <circle cx="50" cy="0" r="1.5" fill="#000"/>
  <circle cx="10" cy="0" r="1.5" fill="#000"/>
  <text x="8" y="11.00" font-family="sans-serif" font-size="4" fill="#333">N</text>
  <text x="7" y="125.00" font-family="sans-serif" font-size="5" fill="#333">DX³-ID</text>
  <text x="46" y="89.00" font-family="sans-serif" font-size="7" fill="#333">300mA</text>
  <text x="44" y="97.00" font-family="sans-serif" font-size="4" fill="#333">Type AC</text>
  <text x="68" y="108.00" font-family="sans-serif" font-size="4" fill="#333">-25</text>
  <text x="7" y="133.00" font-family="sans-serif" font-size="7" fill="#333">40A</text>
  <text x="26" y="139.00" font-family="sans-serif" font-size="5" fill="#333">6000</text>
  <text x="4" y="39.00" font-family="sans-serif" font-size="5" fill="#333">230V∿</text>
  <text x="33.52" y="38.54" font-family="sans-serif" font-size="4" fill="#333">N</text>
  <text x="36.52" y="37.54" font-family="sans-serif" font-size="4" fill="#333">F</text>
  <text x="31.52" y="44.54" font-family="sans-serif" font-size="5" fill="#333">UF843</text>
  <text x="67.1" y="47.40" font-family="sans-serif" font-size="5" fill="#333">T</text>
  <text x="53.55" y="32.00" font-family="sans-serif" font-size="5" fill="#333">N</text>
  <text x="72.8" y="32.20" font-family="sans-serif" font-size="5" fill="#333">N</text>
  <text x="13" y="89.00" font-family="sans-serif" font-size="4" fill="#333">O.OFF</text>
  <text x="39.84" y="89.00" font-family="sans-serif" font-size="4" fill="#333">IΔn</text>
  <text x="48" y="11.00" font-family="sans-serif" font-size="4" fill="#333">N</text>
</svg>
