<svg xmlns="http://www.w3.org/2000/svg" width="134" height="64" viewBox="-59.00 -47.00 134.00 64.00">
  <rect x="65" y="5.39" width="3" height="3.29" fill="none" stroke="#000" stroke-width="1"/>
  <ellipse cx="28.00" cy="-36.50" rx="6.00" ry="1.50" fill="none" stroke="#000" stroke-width="0.5" stroke-dasharray="4,2"/>
  <rect x="-47" y="-17" width="4" height="4" fill="none" stroke="#000" stroke-width="1"/>
  <ellipse cx="60.00" cy="-36.50" rx="6.00" ry="1.50" fill="none" stroke="#000" stroke-width="0.5" stroke-dasharray="4,2"/>
  <line x1="-0.77" y1="-2.28" x2="69.53" y2="-2.28" stroke="#000" stroke-width="0.5"/>
  <line x1="-0.77" y1="-11.06" x2="69.53" y2="-11.06" stroke="#000" stroke-width="0.5"/>
  <polyline points="36.59,-34.08 40.28,-39.93 64.25,-39.93 67.94,-34.08 67,-34.08" fill="none" stroke="#000" stroke-width="0.5"/>
  <rect x="-50" y="-19" width="3" height="8" fill="none" stroke="#000" stroke-width="1"/>
  <line x1="-50" y1="-16" x2="-48" y2="-16" stroke="#000" stroke-width="1"/>
  <line x1="-0.77" y1="-6.67" x2="69.53" y2="-6.67" stroke="#000" stroke-width="0.5"/>
  <ellipse cx="45.00" cy="-36.50" rx="6.00" ry="1.50" fill="none" stroke="#000" stroke-width="0.5" stroke-dasharray="4,2"/>
  <line x1="-50" y1="-14" x2="-48" y2="-14" stroke="#000" stroke-width="1"/>
  <rect x="51" y="-38" width="3" height="3" fill="none" stroke="#000" stroke-width="0.5" stroke-dasharray="4,2"/>
  <line x1="-0.77" y1="2.1" x2="69.53" y2="2.1" stroke="#000" stroke-width="0.5"/>
  <rect x="-40" y="5.39" width="3" height="3.29" fill="none" stroke="#000" stroke-width="1"/>
  <line x1="-0.77" y1="-17.63" x2="69.53" y2="-17.63" stroke="#000" stroke-width="0.5"/>
  <line x1="-0.77" y1="-15.44" x2="69.53" y2="-15.44" stroke="#000" stroke-width="0.5"/>
  <line x1="-0.77" y1="-19.83" x2="69.53" y2="-19.83" stroke="#000" stroke-width="0.5"/>
  <line x1="-0.77" y1="-24.21" x2="69.53" y2="-24.21" stroke="#000" stroke-width="0.5"/>
  <rect x="-43.05" y="-34.08" width="112.58" height="39.48" fill="none" stroke="#000" stroke-width="1"/>
  <line x1="-0.77" y1="-0.09" x2="69.53" y2="-0.09" stroke="#000" stroke-width="0.5"/>
  <line x1="-0.77" y1="-8.86" x2="69.53" y2="-8.86" stroke="#000" stroke-width="0.5"/>
  <line x1="-2" y1="-34.08" x2="-2" y2="4.3" stroke="#000" stroke-width="1"/>
  <line x1="-0.77" y1="-28.6" x2="69.53" y2="-28.6" stroke="#000" stroke-width="0.5"/>
  <line x1="-0.77" y1="-13.25" x2="69.53" y2="-13.25" stroke="#000" stroke-width="0.5"/>
  <line x1="-0.77" y1="-4.48" x2="69.53" y2="-4.48" stroke="#000" stroke-width="0.5"/>
  <line x1="-0.77" y1="-26.41" x2="69.53" y2="-26.41" stroke="#000" stroke-width="0.5"/>
  <line x1="-0.77" y1="-22" x2="69.53" y2="-22" stroke="#000" stroke-width="0.5"/>
  <line x1="-0.77" y1="-30.79" x2="69.53" y2="-30.79" stroke="#000" stroke-width="0.5"/>
  <polyline points="4.59,-34.08 8.28,-39.93 32.25,-39.93 35.94,-34.08 35,-34.08" fill="none" stroke="#000" stroke-width="0.5"/>
  <rect x="11" y="5.39" width="3" height="3.29" fill="none" stroke="#000" stroke-width="1"/>
  <rect x="-39" y="-28.6" width="11" height="6.58" fill="none" stroke="#000" stroke-width="0.5"/>
  <rect x="-47" y="-2" width="4" height="4" fill="none" stroke="#000" stroke-width="1"/>
  <rect x="-50" y="-4" width="3" height="8" fill="none" stroke="#000" stroke-width="1"/>
  <line x1="-50" y1="-1" x2="-48" y2="-1" stroke="#000" stroke-width="1"/>
  <line x1="-50" y1="1" x2="-48" y2="1" stroke="#000" stroke-width="1"/>
  <polyline points="-40,-15 -33,-15 -37,-16 -37,-14 -34,-15" fill="none" stroke="#000" stroke-width="1"/>
  <polyline points="-32,0 -39,0 -34,-1 -34,1 -39,0" fill="none" stroke="#000" stroke-width="1"/>
  <polygon points="3,-33 -1,-29 31,5 35,2" fill="none" stroke="#000" stroke-width="0.5" stroke-dasharray="4,2"/>
  <polygon points="35,2 66,-34 69,-31 39,5" fill="none" stroke="#000" stroke-width="0.5" stroke-dasharray="4,2"/>
  <ellipse cx="13.00" cy="-36.50" rx="6.00" ry="1.50" fill="none" stroke="#000" stroke-width="0.5" stroke-dasharray="4,2"/>
  <rect x="19" y="-38" width="3" height="3" fill="none" stroke="#000" stroke-width="0.5" stroke-dasharray="4,2"/>
  <polyline points="-36,-23 -33,-26 -33,-24 -31,-27" fill="none" stroke="#000" stroke-width="1"/>
  <circle cx="-35" cy="-30" r="1.5" fill="#000"/>
  <circle cx="-50" cy="0" r="1.5" fill="#000"/>
  <circle cx="-50" cy="-15" r="1.5" fill="#000"/>
</svg>
