<svg xmlns="http://www.w3.org/2000/svg" width="44" height="44" viewBox="-30.00 -31.00 44.00 44.00">
  <path d="M -7.00 -5.00 A 2.00 2.00 0 0 0 -5.00 -7.00" fill="none" stroke="#000" stroke-width="1"/>
  <rect x="-6" y="-18" width="12" height="7" fill="none" stroke="#000" stroke-width="1"/>
  <line x1="-18" y1="-5" x2="-8" y2="-5" stroke="#000" stroke-width="1"/>
  <path d="M -5.00 -10.00 A 1.00 1.00 0 0 0 -6.00 -11.00" fill="none" stroke="#000" stroke-width="1"/>
  <path d="M 6.00 -11.00 A 1.00 1.00 0 0 0 5.00 -10.00" fill="none" stroke="#000" stroke-width="1"/>
  <line x1="-5" y1="-9" x2="-5" y2="-8" stroke="#000" stroke-width="1"/>
  <line x1="5" y1="-9" x2="5" y2="-7" stroke="#000" stroke-width="1"/>
  <path d="M -6.00 5.00 A 11.00 11.00 0 0 0 5.00 -6.00" fill="none" stroke="#000" stroke-width="1"/>
  <line x1="-18" y1="5" x2="-7" y2="5" stroke="#000" stroke-width="1"/>
  <line x1="-11" y1="-5" x2="-11" y2="5" stroke="#000" stroke-width="0.5"/>
  <line x1="-18" y1="-4" x2="-18" y2="4" stroke="#000" stroke-width="1"/>
  <circle cx="-18" cy="0" r="1.5" fill="#000"/>
  <circle cx="0" cy="-18" r="1.5" fill="#000"/>
</svg>
