<svg xmlns="http://www.w3.org/2000/svg" width="144" height="314" viewBox="-16.00 -303.00 144.00 314.00">
  <line x1="65" y1="-224" x2="55" y2="-214" stroke="#000" stroke-width="1"/>
  <rect x="0" y="-85" width="120" height="85" fill="none" stroke="#000" stroke-width="1"/>
  <line x1="60" y1="-244" x2="60" y2="-240" stroke="#000" stroke-width="1"/>
  <line x1="0" y1="-15" x2="120" y2="-15" stroke="#000" stroke-width="1"/>
  <polyline points="60,-257 60,-260 55,-280" fill="none" stroke="#000" stroke-width="1"/>
  <line x1="65" y1="-218" x2="55" y2="-208" stroke="#000" stroke-width="1"/>
  <line x1="60" y1="-240" x2="60" y2="-177" stroke="#000" stroke-width="1"/>
  <line x1="0" y1="-45" x2="120" y2="-45" stroke="#000" stroke-width="1"/>
  <path d="M 60.00 -244.50 A 4.00 2.50 0 0 0 60.00 -249.50" fill="none" stroke="#000" stroke-width="1"/>
  <line x1="0" y1="-65" x2="120" y2="-65" stroke="#000" stroke-width="1"/>
  <line x1="60" y1="-252" x2="60" y2="-250" stroke="#000" stroke-width="1"/>
  <line x1="60" y1="-253" x2="64" y2="-253" stroke="#000" stroke-width="1"/>
  <line x1="0" y1="-170" x2="120" y2="-170" stroke="#0a0" stroke-width="1" stroke-dasharray="4,2"/>
  <ellipse cx="65.00" cy="-224.00" rx="1.00" ry="1.00" fill="#000" stroke="#000" stroke-width="1"/>
  <line x1="64" y1="-257" x2="64" y2="-253" stroke="#000" stroke-width="1"/>
  <line x1="60" y1="-257" x2="64" y2="-257" stroke="#000" stroke-width="1"/>
  <line x1="48" y1="-123" x2="48" y2="-100" stroke="#000" stroke-width="1"/>
  <line x1="60" y1="-290" x2="60" y2="-280" stroke="#000" stroke-width="1"/>
  <line x1="62" y1="-282" x2="58" y2="-278" stroke="#000" stroke-width="1"/>
  <line x1="72" y1="-123" x2="72" y2="-100" stroke="#000" stroke-width="1"/>
  <line x1="48" y1="-100" x2="56" y2="-97" stroke="#000" stroke-width="1"/>
  <line x1="58" y1="-282" x2="62" y2="-278" stroke="#000" stroke-width="1"/>
  <line x1="72" y1="-100" x2="63" y2="-97" stroke="#000" stroke-width="1"/>
  <line x1="57" y1="-270" x2="50" y2="-270" stroke="#000" stroke-width="0.5" stroke-dasharray="4,2"/>
  <path d="M 72.86 -124.68 A 20.00 20.00 0 1 0 47.14 -124.68" fill="none" stroke="#000" stroke-width="1"/>
  <line x1="50" y1="-270" x2="50" y2="-247" stroke="#000" stroke-width="0.5" stroke-dasharray="4,2"/>
  <line x1="50" y1="-247" x2="64" y2="-247" stroke="#000" stroke-width="0.5" stroke-dasharray="4,2"/>
  <line x1="48" y1="-124" x2="72" y2="-124" stroke="#000" stroke-width="1"/>
  <line x1="60" y1="-176" x2="60" y2="-161" stroke="#000" stroke-width="1"/>
  <line x1="50" y1="-255" x2="64" y2="-255" stroke="#000" stroke-width="0.5" stroke-dasharray="4,2"/>
  <path d="M 56.00 -97.00 A 4.00 2.00 0 0 0 64.00 -97.00" fill="none" stroke="#000" stroke-width="1"/>
  <line x1="56" y1="-97" x2="63" y2="-97" stroke="#000" stroke-width="1"/>
  <line x1="48" y1="-100" x2="72" y2="-100" stroke="#000" stroke-width="1"/>
  <line x1="48" y1="-100" x2="72" y2="-104" stroke="#000" stroke-width="1"/>
  <line x1="48" y1="-104" x2="72" y2="-108" stroke="#000" stroke-width="1"/>
  <line x1="48" y1="-108" x2="72" y2="-112" stroke="#000" stroke-width="1"/>
  <line x1="48" y1="-112" x2="72" y2="-116" stroke="#000" stroke-width="1"/>
  <line x1="48" y1="-116" x2="72" y2="-120" stroke="#000" stroke-width="1"/>
  <line x1="48" y1="-120" x2="59" y2="-122" stroke="#000" stroke-width="1"/>
  <ellipse cx="60.00" cy="-170.00" rx="2.00" ry="2.00" fill="#000" stroke="#000" stroke-width="1"/>
  <circle cx="60" cy="-290" r="1.5" fill="#000"/>
  <text x="29" y="-37.00" font-family="sans-serif" font-size="7" fill="#555">10</text>
  <text x="-2" y="-56.00" font-family="sans-serif" font-size="7" fill="#555">Local</text>
  <text x="58" y="-18.00" font-family="sans-serif" font-size="5" fill="#333">kA C</text>
  <text x="66" y="-32.00" font-family="sans-serif" font-size="7" fill="#333">A</text>
  <text x="58" y="-2.00" font-family="sans-serif" font-size="5" fill="#333">mm²</text>
  <text x="30" y="-23.50" font-family="sans-serif" font-size="5" fill="#555">4.5</text>
  <text x="28" y="-8.50" font-family="sans-serif" font-size="5" fill="#555">3 G 1.5</text>
  <text x="-2" y="-74.50" font-family="sans-serif" font-size="7" fill="#555">Éclairage</text>
</svg>
