<svg xmlns="http://www.w3.org/2000/svg" width="74" height="84" viewBox="-37.00 -42.00 74.00 84.00">
  <line x1="0" y1="-3" x2="0" y2="-30" stroke="#000" stroke-width="1"/>
  <line x1="0" y1="30" x2="0" y2="18" stroke="#000" stroke-width="1"/>
  <line x1="25" y1="10" x2="13" y2="10" stroke="#000" stroke-width="1"/>
  <line x1="-25" y1="10" x2="-13" y2="10" stroke="#000" stroke-width="1"/>
  <line x1="-18" y1="0" x2="-25" y2="0" stroke="#000" stroke-width="1"/>
  <ellipse cx="0.00" cy="15.00" rx="2.50" ry="2.50" fill="none" stroke="#000" stroke-width="1"/>
  <polyline points="-2,-20 -2,-16 2,-16 2,-20" fill="none" stroke="#000" stroke-width="1"/>
  <path d="M -2.09 -19.89 A 20.00 20.00 0 1 0 2.09 -19.89" fill="none" stroke="#000" stroke-width="1"/>
  <ellipse cx="0.00" cy="0.00" rx="2.50" ry="2.50" fill="none" stroke="#000" stroke-width="1"/>
  <line x1="25" y1="-10" x2="13" y2="-10" stroke="#000" stroke-width="1"/>
  <line x1="25" y1="0" x2="18" y2="0" stroke="#000" stroke-width="1"/>
  <ellipse cx="-15.00" cy="0.00" rx="2.50" ry="2.50" fill="none" stroke="#000" stroke-width="1"/>
  <ellipse cx="15.00" cy="0.00" rx="2.50" ry="2.50" fill="none" stroke="#000" stroke-width="1"/>
  <ellipse cx="10.00" cy="10.00" rx="2.50" ry="2.50" fill="none" stroke="#000" stroke-width="1"/>
  <ellipse cx="-10.00" cy="10.00" rx="2.50" ry="2.50" fill="none" stroke="#000" stroke-width="1"/>
  <line x1="-25" y1="-10" x2="-13" y2="-10" stroke="#000" stroke-width="1"/>
  <ellipse cx="10.00" cy="-10.00" rx="2.50" ry="2.50" fill="none" stroke="#000" stroke-width="1"/>
  <ellipse cx="-10.00" cy="-10.00" rx="2.50" ry="2.50" fill="none" stroke="#000" stroke-width="1"/>
  <circle cx="0" cy="-31" r="1.5" fill="#000"/>
  <circle cx="-26" cy="0" r="1.5" fill="#000"/>
  <circle cx="-26" cy="10" r="1.5" fill="#000"/>
  <circle cx="26" cy="0" r="1.5" fill="#000"/>
  <circle cx="26" cy="10" r="1.5" fill="#000"/>
  <circle cx="0" cy="31" r="1.5" fill="#000"/>
  <circle cx="-26" cy="-10" r="1.5" fill="#000"/>
  <circle cx="26" cy="-10" r="1.5" fill="#000"/>
</svg>
