<svg xmlns="http://www.w3.org/2000/svg" width="84" height="64" viewBox="-42.00 -24.00 84.00 64.00">
  <line x1="0" y1="7" x2="0" y2="3" stroke="#000" stroke-width="1"/>
  <line x1="0" y1="-14" x2="0" y2="-18" stroke="#000" stroke-width="1"/>
  <line x1="0" y1="0" x2="0" y2="-4" stroke="#000" stroke-width="1"/>
  <line x1="-5" y1="9" x2="0" y2="14" stroke="#000" stroke-width="1"/>
  <line x1="0" y1="20" x2="-20" y2="0" stroke="#000" stroke-width="1"/>
  <line x1="-11" y1="9" x2="11" y2="9" stroke="#000" stroke-width="1"/>
  <line x1="-20" y1="0" x2="0" y2="-20" stroke="#000" stroke-width="1"/>
  <line x1="0" y1="14" x2="5" y2="9" stroke="#000" stroke-width="1"/>
  <line x1="20" y1="0" x2="0" y2="20" stroke="#000" stroke-width="1"/>
  <line x1="0" y1="-20" x2="20" y2="0" stroke="#000" stroke-width="1"/>
  <line x1="-20" y1="0" x2="-30" y2="0" stroke="#000" stroke-width="1"/>
  <line x1="0" y1="20" x2="0" y2="30" stroke="#000" stroke-width="1"/>
  <line x1="20" y1="0" x2="30" y2="0" stroke="#000" stroke-width="1"/>
  <line x1="0" y1="-7" x2="0" y2="-11" stroke="#000" stroke-width="1"/>
  <circle cx="-30" cy="0" r="1.5" fill="#000"/>
  <circle cx="0" cy="30" r="1.5" fill="#000"/>
  <circle cx="30" cy="0" r="1.5" fill="#000"/>
</svg>
