<svg xmlns="http://www.w3.org/2000/svg" width="64" height="84" viewBox="-32.00 -49.00 64.00 84.00">
  <ellipse cx="0.00" cy="10.00" rx="15.00" ry="15.00" fill="none" stroke="#000" stroke-width="1"/>
  <polyline points="20,-9 20,30 9,22" fill="none" stroke="#000" stroke-width="1"/>
  <polyline points="-21,-9 -21,30 -9,22" fill="none" stroke="#000" stroke-width="1"/>
  <line x1="0" y1="-9" x2="0" y2="-5" stroke="#000" stroke-width="1"/>
  <path d="M 20.00 -24.00 A 3.50 2.50 0 0 0 20.00 -29.00" fill="none" stroke="#000" stroke-width="1"/>
  <path d="M -0.00 -24.00 A 3.50 2.50 0 0 0 0.00 -29.00" fill="none" stroke="#000" stroke-width="1"/>
  <path d="M -20.00 -24.00 A 3.50 2.50 0 0 0 -20.00 -29.00" fill="none" stroke="#000" stroke-width="1"/>
  <path d="M 20.00 -14.00 A 3.50 2.50 0 0 0 20.00 -19.00" fill="none" stroke="#000" stroke-width="1"/>
  <path d="M -0.00 -14.00 A 3.50 2.50 0 0 0 0.00 -19.00" fill="none" stroke="#000" stroke-width="1"/>
  <path d="M -20.00 -14.00 A 3.50 2.50 0 0 0 -20.00 -19.00" fill="none" stroke="#000" stroke-width="1"/>
  <path d="M 20.00 -9.00 A 3.50 2.50 0 0 0 20.00 -14.00" fill="none" stroke="#000" stroke-width="1"/>
  <path d="M -0.00 -9.00 A 3.50 2.50 0 0 0 0.00 -14.00" fill="none" stroke="#000" stroke-width="1"/>
  <path d="M -20.00 -9.00 A 3.50 2.50 0 0 0 -20.00 -14.00" fill="none" stroke="#000" stroke-width="1"/>
  <path d="M 20.00 -19.00 A 3.50 2.50 0 0 0 20.00 -24.00" fill="none" stroke="#000" stroke-width="1"/>
  <path d="M -0.00 -19.00 A 3.50 2.50 0 0 0 0.00 -24.00" fill="none" stroke="#000" stroke-width="1"/>
  <path d="M -20.00 -19.00 A 3.50 2.50 0 0 0 -20.00 -24.00" fill="none" stroke="#000" stroke-width="1"/>
  <line x1="20" y1="-39" x2="20" y2="-29" stroke="#000" stroke-width="1"/>
  <line x1="0" y1="-39" x2="0" y2="-29" stroke="#000" stroke-width="1"/>
  <line x1="-20" y1="-39" x2="-20" y2="-29" stroke="#000" stroke-width="1"/>
  <circle cx="20" cy="-40" r="1.5" fill="#000"/>
  <circle cx="0" cy="-40" r="1.5" fill="#000"/>
  <circle cx="-20" cy="-40" r="1.5" fill="#000"/>
  <text x="-11" y="19.00" font-family="sans-serif" font-size="9" fill="#333">3 ~</text>
  <text x="-4" y="7.00" font-family="sans-serif" font-size="8" fill="#333">M</text>
</svg>
