<svg xmlns="http://www.w3.org/2000/svg" width="34" height="174" viewBox="-20.00 -87.00 34.00 174.00">
  <rect x="-9" y="-83" width="18" height="166" fill="#fff" stroke="#000" stroke-width="0.5"/>
  <rect x="-9" y="-60" width="18" height="120" fill="#fff" stroke="#000" stroke-width="0.5"/>
  <rect x="-9" y="-44" width="18" height="88" fill="#fff" stroke="#000" stroke-width="0.5"/>
  <rect x="-9" y="-40" width="18" height="27" fill="#fff" stroke="#000" stroke-width="0.5"/>
  <rect x="-8" y="13" width="18" height="4" fill="#000" stroke="#000" stroke-width="0.5"/>
  <rect x="-9" y="17" width="18" height="27" fill="none" stroke="#000" stroke-width="0.5"/>
  <rect x="-5.5" y="-13" width="11" height="35" fill="#ccc" stroke="#000" stroke-width="0.5"/>
  <rect x="-8" y="7" width="16" height="15" fill="#ccc" stroke="#000" stroke-width="0.5"/>
  <rect x="-9" y="-38" width="4" height="3" fill="none" stroke="#000" stroke-width="0"/>
  <ellipse cx="-0.30" cy="-69.80" rx="6.50" ry="6.50" fill="#ccc" stroke="#000" stroke-width="0.5"/>
  <line x1="-3.2" y1="-72.7" x2="2.8" y2="-66.7" stroke="#000" stroke-width="1"/>
  <line x1="-3.2" y1="-66.7" x2="2.8" y2="-72.7" stroke="#000" stroke-width="1"/>
  <line x1="-0.2" y1="-72.7" x2="-0.2" y2="-66.7" stroke="#000" stroke-width="0.5"/>
  <line x1="-3.2" y1="-69.7" x2="2.8" y2="-69.7" stroke="#000" stroke-width="0.5"/>
  <ellipse cx="-0.30" cy="70.00" rx="6.50" ry="6.50" fill="#ccc" stroke="#000" stroke-width="0.5"/>
  <line x1="-3.2" y1="67.1" x2="2.8" y2="73.1" stroke="#000" stroke-width="1"/>
  <line x1="-3.2" y1="73.1" x2="2.8" y2="67.1" stroke="#000" stroke-width="1"/>
  <line x1="-0.2" y1="67.1" x2="-0.2" y2="73.1" stroke="#000" stroke-width="0.5"/>
  <line x1="-3.2" y1="70.1" x2="2.8" y2="70.1" stroke="#000" stroke-width="0.5"/>
  <ellipse cx="-0.30" cy="-51.80" rx="6.50" ry="6.50" fill="#ccc" stroke="#000" stroke-width="0.5"/>
  <line x1="-3.2" y1="-54.7" x2="2.8" y2="-48.7" stroke="#000" stroke-width="1"/>
  <line x1="-3.2" y1="-48.7" x2="2.8" y2="-54.7" stroke="#000" stroke-width="1"/>
  <line x1="-0.2" y1="-54.7" x2="-0.2" y2="-48.7" stroke="#000" stroke-width="0.5"/>
  <line x1="-3.2" y1="-51.7" x2="2.8" y2="-51.7" stroke="#000" stroke-width="0.5"/>
  <ellipse cx="-0.30" cy="52.00" rx="6.50" ry="6.50" fill="#ccc" stroke="#000" stroke-width="0.5"/>
  <line x1="-3.2" y1="49.1" x2="2.8" y2="55.1" stroke="#000" stroke-width="1"/>
  <line x1="-3.2" y1="55.1" x2="2.8" y2="49.1" stroke="#000" stroke-width="1"/>
  <line x1="-0.2" y1="49.1" x2="-0.2" y2="55.1" stroke="#000" stroke-width="0.5"/>
  <line x1="-3.2" y1="52.1" x2="2.8" y2="52.1" stroke="#000" stroke-width="0.5"/>
  <text x="-8.59" y="59.10" font-family="sans-serif" font-size="5" fill="#333">21</text>
  <text x="-8.5" y="80.00" font-family="sans-serif" font-size="5" fill="#333">22</text>
  <text x="-4.7" y="-35.00" font-family="sans-serif" font-size="4" fill="#333">:hager</text>
  <text x="-4" y="0.00" font-family="sans-serif" font-size="9" fill="#333">0</text>
  <text x="-12" y="-31.00" font-family="sans-serif" font-size="4" fill="#555">MZ201</text>
  <text x="-9" y="-78.00" font-family="sans-serif" font-size="5" fill="#333">13</text>
  <text x="-9" y="-56.00" font-family="sans-serif" font-size="5" fill="#333">14</text>
</svg>
